<?xml version="1.0" encoding="utf-8"?>
<!-- Generator: Adobe Illustrator 20.0.0, SVG Export Plug-In . SVG Version: 6.00 Build 0)  -->
<svg version="1.1" id="Layer_1" xmlns="http://www.w3.org/2000/svg" xmlns:xlink="http://www.w3.org/1999/xlink" x="0px" y="0px"
	 viewBox="0 0 236.8 114.2" style="enable-background:new 0 0 236.8 114.2;" xml:space="preserve">
<style type="text/css">
	.st0{fill:#4ABFA8;}
</style>
<g>
	<g>
		<path class="st0" d="M111.9,45.3v3.6l22.7-12.3c0.5-0.3,0.8-0.8,0.8-1.4l5.9-29.3c0.1-0.5-0.6-0.8-0.9-0.4L111.9,45.3z"/>
	</g>
	<g>
		<path class="st0" d="M171.1,45.3v3.6l-22.7-12.3c-0.5-0.3-0.8-0.8-0.8-1.4l-5.9-29.3c-0.1-0.5,0.6-0.8,0.9-0.4L171.1,45.3z"/>
	</g>
	<g>
		<path class="st0" d="M4.4,101.2l7.2-8c3,3.3,5.8,5.2,9.5,5.2c4.3,0,6.9-2.6,6.9-8.6V56.4h11.7v33.9c0,6.1-1.8,10.7-4.9,13.8
			c-3.2,3.2-7.8,4.8-13.5,4.8C13.3,108.9,8,105.4,4.4,101.2z"/>
	</g>
	<g>
		<path class="st0" d="M58.7,56.4h39v10.1H70v10.5h24.4v10.1H70v10.9h28.1v10.1H58.7V56.4z"/>
	</g>
	<g>
		<path class="st0" d="M201.1,87.8l-19.9-31.3h13.3l12.3,20.8l12.6-20.8h12.9l-19.9,31.1v20.6h-11.4V87.8z"/>
	</g>
	<g>
		<polygon class="st0" points="138.1,108.2 138.1,56.4 111.9,56.4 111.9,66.9 127.6,66.9 127.6,108.2 		"/>
	</g>
	<g>
		<polygon class="st0" points="144.8,108.2 144.8,56.4 171.1,56.4 171.1,66.9 155.3,66.9 155.3,108.2 		"/>
	</g>
</g>
</svg>
